<mxfile host="Electron" modified="2023-06-26T11:22:04.140Z" agent="Mozilla/5.0 (Windows NT 10.0; Win64; x64) AppleWebKit/537.36 (KHTML, like Gecko) draw.io/21.5.0 Chrome/112.0.5615.204 Electron/24.5.1 Safari/537.36" etag="tRh4Lp6JviMGzEuH2uQZ" version="21.5.0" type="device">
  <diagram name="Page-1" id="03018318-947c-dd8e-b7a3-06fadd420f32">
    <mxGraphModel dx="1300" dy="1757" grid="1" gridSize="10" guides="1" tooltips="1" connect="1" arrows="1" fold="1" page="1" pageScale="1" pageWidth="1100" pageHeight="850" background="none" math="0" shadow="0">
      <root>
        <mxCell id="0" />
        <mxCell id="1" parent="0" />
        <mxCell id="677b7b8949515195-2" value="&lt;h1 style=&quot;font-family: Arial, sans-serif;&quot;&gt;&lt;a style=&quot;text-decoration-line: none;&quot; href=&quot;http://127.0.0.1:5500/index.html&quot;&gt;&lt;font color=&quot;#0d0000&quot; style=&quot;font-size: 48px;&quot;&gt;Musik-Event-Kalender&lt;/font&gt;&lt;/a&gt;&lt;/h1&gt;" style="whiteSpace=wrap;html=1;rounded=0;shadow=0;labelBackgroundColor=none;strokeWidth=1;fontFamily=Verdana;fontSize=28;align=center;comic=1;fillColor=#f5f5f5;gradientColor=#b3b3b3;strokeColor=#666666;" parent="1" vertex="1">
          <mxGeometry x="20" y="25" width="1040" height="50" as="geometry" />
        </mxCell>
        <mxCell id="677b7b8949515195-9" value="" style="line;strokeWidth=1;html=1;rounded=0;shadow=0;labelBackgroundColor=none;fillColor=none;fontFamily=Verdana;fontSize=14;fontColor=#000000;align=center;comic=1;" parent="1" vertex="1">
          <mxGeometry x="20" y="140" width="1060" height="10" as="geometry" />
        </mxCell>
        <mxCell id="677b7b8949515195-10" value="" style="whiteSpace=wrap;html=1;rounded=0;shadow=0;labelBackgroundColor=none;strokeWidth=1;fillColor=#a20025;fontFamily=Verdana;fontSize=12;align=center;comic=1;strokeColor=#6F0000;fontColor=#ffffff;" parent="1" vertex="1">
          <mxGeometry x="20" y="90" width="1040" height="50" as="geometry" />
        </mxCell>
        <mxCell id="677b7b8949515195-11" value="Events&lt;span style=&quot;white-space: pre;&quot;&gt;&#x9;&lt;/span&gt;" style="text;html=1;points=[];align=left;verticalAlign=top;spacingTop=-4;fontSize=14;fontFamily=Verdana" parent="1" vertex="1">
          <mxGeometry x="355" y="105" width="60" height="20" as="geometry" />
        </mxCell>
        <mxCell id="677b7b8949515195-12" value="Künstler" style="text;html=1;points=[];align=left;verticalAlign=top;spacingTop=-4;fontSize=14;fontFamily=Verdana" parent="1" vertex="1">
          <mxGeometry x="520" y="105" width="60" height="20" as="geometry" />
        </mxCell>
        <mxCell id="677b7b8949515195-13" value="Galerie&lt;br&gt;" style="text;html=1;points=[];align=left;verticalAlign=top;spacingTop=-4;fontSize=14;fontFamily=Verdana" parent="1" vertex="1">
          <mxGeometry x="690" y="105" width="60" height="20" as="geometry" />
        </mxCell>
        <mxCell id="677b7b8949515195-26" value="" style="whiteSpace=wrap;html=1;rounded=0;shadow=0;labelBackgroundColor=none;strokeWidth=1;fontFamily=Verdana;fontSize=12;align=center;comic=1;fillColor=#cdeb8b;strokeColor=#36393d;" parent="1" vertex="1">
          <mxGeometry x="20" y="160" width="1040" height="620" as="geometry" />
        </mxCell>
        <mxCell id="REHDm1wyKtZERqcf-xgg-2" value="© 2023 Musik-Event-Kalender. Erstellt von Mohammad Shahir Bashiri." style="whiteSpace=wrap;html=1;rounded=0;shadow=0;labelBackgroundColor=none;strokeWidth=1;fontFamily=Verdana;fontSize=12;align=center;comic=1;fillColor=#000000;fontColor=#FFFFFF;" parent="1" vertex="1">
          <mxGeometry x="20" y="780" width="1040" height="50" as="geometry" />
        </mxCell>
        <mxCell id="REHDm1wyKtZERqcf-xgg-4" value="&lt;h1 style=&quot;font-family: Arial, sans-serif;&quot;&gt;&lt;font style=&quot;font-size: 18px;&quot;&gt;Willkommen beim Musik-Event-Kalender!&lt;/font&gt;&lt;/h1&gt;&lt;div&gt;&lt;br&gt;&lt;/div&gt;&lt;p style=&quot;font-family: Arial, sans-serif; font-size: medium;&quot;&gt;&lt;/p&gt;" style="whiteSpace=wrap;html=1;rounded=0;shadow=0;labelBackgroundColor=none;strokeWidth=1;fillColor=none;fontFamily=Verdana;fontSize=12;align=center;comic=1;strokeColor=none;fontColor=#000000;" parent="1" vertex="1">
          <mxGeometry x="315" y="170" width="450" height="50" as="geometry" />
        </mxCell>
        <mxCell id="REHDm1wyKtZERqcf-xgg-5" value="Hier findest du eine vielfältige Auswahl an Live-Musikveranstaltungen in der Schweiz. Von mitreissenden Konzerten internationaler Superstars bis hin zu renommierten Festivals und Open-Air-Veranstaltungen - unser Musik-Event-Kalender hält dich immer über die angesagtesten Events auf dem Laufenden. Tauche ein in die pulsierende Musikszene der Schweiz und entdecke die besten Konzerte in verschiedenen Genres wie Pop, Rock, Hip-Hop, Elektro, Jazz und vielem mehr. Wir bieten dir eine Plattform, um immer auf dem neuesten Stand zu bleiben und keine Gelegenheit zu verpassen, unvergessliche Live-Auftritte hautnah zu erleben. Durchstöbere unseren Kalender, informiere dich über kommende Events und sichere dir rechtzeitig deine Tickets. Genieße unvergessliche Nächte voller Emotionen, Energie und der Magie der Live-Musik!" style="whiteSpace=wrap;html=1;rounded=0;shadow=0;labelBackgroundColor=none;strokeWidth=1;fillColor=none;fontFamily=Verdana;fontSize=12;align=center;comic=1;strokeColor=none;" parent="1" vertex="1">
          <mxGeometry x="20" y="200" width="1040" height="90" as="geometry" />
        </mxCell>
      </root>
    </mxGraphModel>
  </diagram>
</mxfile>
